# xmcd CD database file
#
# Track frame offsets:
#	150
#	16467
#	30723
#	46526
#	59855
#	82340
#	91350
#	102922
#	117841
#	128732
#	140763
#	153937
#	165526
#	181014
#	196769
#	214885
#
# Disc length: 3030 seconds
#
# Revision: 0
# Processed by: cddbd v1.5.1PL2 Copyright (c) Steve Scherf et al.
# Submitted via: CDex 1.51
#
DISCID=d80bd410
DTITLE=Compilation - Lady Sings the Blues Again 1 of 2
DYEAR=2005
DGENRE=Blues
TTITLE0=Nina Simone - My Baby Just Cares for Me
TTITLE1=Billie Holiday - Travelin' Light
TTITLE2=Dinah Washington - Drinking Again
TTITLE3=Kay Starr - Crazy
TTITLE4=June Christy - Something Cool
TTITLE5=Nancy Wilson - Wives and Lovers
TTITLE6=Julie London - Fly Me to the Moon
TTITLE7=Esther Phillips - Release Me
TTITLE8=Barbara George - I Know You Don't Love Me No More
TTITLE9=Inez Foxx - Mockingbird
TTITLE10=Bettye Swann - Tell It Like It Is
TTITLE11=Erma Franklin - Piece of my Heart
TTITLE12=Candi Staton - That's How Strong My Love Is
TTITLE13=Rickie Lee Jones - Chuck E's In Love
TTITLE14=Luba - Everytime I See Your Picture
TTITLE15=Molly Johnson - Sleep In Late
EXTD=YEAR: 2005
EXTT0=
EXTT1=
EXTT2=
EXTT3=
EXTT4=
EXTT5=
EXTT6=
EXTT7=
EXTT8=
EXTT9=
EXTT10=
EXTT11=
EXTT12=
EXTT13=
EXTT14=
EXTT15=
PLAYORDER=
